<svg width="512" height="512" viewBox="0 0 512 512" xmlns="http://www.w3.org/2000/svg">
  <!-- Advanced yellow and blue gradients -->
  <defs>
    <linearGradient id="techGradient" x1="0%" y1="0%" x2="100%" y2="100%">
      <stop offset="0%" style="stop-color:#0f1419;stop-opacity:1" />
      <stop offset="100%" style="stop-color:#1e293b;stop-opacity:1" />
    </linearGradient>
    <linearGradient id="webGradient" x1="0%" y1="0%" x2="100%" y2="100%">
      <stop offset="0%" style="stop-color:#2563eb;stop-opacity:1" />
      <stop offset="100%" style="stop-color:#3b82f6;stop-opacity:1" />
    </linearGradient>
    <radialGradient id="techGlow" cx="50%" cy="50%" r="50%">
      <stop offset="0%" style="stop-color:#f59e0b;stop-opacity:0.4" />
      <stop offset="70%" style="stop-color:#2563eb;stop-opacity:0.2" />
      <stop offset="100%" style="stop-color:#2563eb;stop-opacity:0" />
    </radialGradient>
    <linearGradient id="accentGradient" x1="0%" y1="0%" x2="100%" y2="100%">
      <stop offset="0%" style="stop-color:#f59e0b;stop-opacity:1" />
      <stop offset="100%" style="stop-color:#fbbf24;stop-opacity:1" />
    </linearGradient>
  </defs>


  <!-- Code brackets and tech elements -->
  <g transform="translate(256, 256)" stroke="#f59e0b" stroke-width="3" fill="none">
    <!-- Left code bracket -->
    <path d="M-140,-80 L-120,-80 L-120,80 L-140,80" opacity="0.8"/>
    <path d="M-130,-70 L-130,70" opacity="0.6"/>

    <!-- Right code bracket -->
    <path d="M140,-80 L120,-80 L120,80 L140,80" opacity="0.8"/>
    <path d="M130,-70 L130,70" opacity="0.6"/>

    <!-- Top and bottom braces -->
    <path d="M-60,-120 L-40,-120 Q-20,-120 -20,-100 L-20,-80" opacity="0.7"/>
    <path d="M60,-120 L40,-120 Q20,-120 20,-100 L20,-80" opacity="0.7"/>
    <path d="M-60,120 L-40,120 Q-20,120 -20,100 L-20,80" opacity="0.7"/>
    <path d="M60,120 L40,120 Q20,120 20,100 L20,80" opacity="0.7"/>
  </g>

  <!-- Binary code pattern -->
  <g fill="#f59e0b" opacity="0.5" font-family="monospace" font-size="12">
    <text x="256" y="140" text-anchor="middle">01001100 01101111 01100111</text>
    <text x="256" y="160" text-anchor="middle">01100111 01101111 01110011</text>
    <text x="256" y="360" text-anchor="middle">01010111 01100101 01100010</text>
    <text x="256" y="380" text-anchor="middle">00100000 01010100 01100101</text>
  </g>

  <!-- Web/network connections -->
  <g stroke="#2563eb" stroke-width="2" opacity="0.6">
    <!-- Central web node -->
    <circle cx="256" cy="256" r="8" fill="#f59e0b"/>
    <!-- Connecting lines to corners -->
    <line x1="256" y1="256" x2="160" y2="160"/>
    <line x1="256" y1="256" x2="352" y2="160"/>
    <line x1="256" y1="256" x2="160" y2="352"/>
    <line x1="256" y1="256" x2="352" y2="352"/>
    <!-- Corner nodes -->
    <circle cx="160" cy="160" r="4" fill="#2563eb"/>
    <circle cx="352" cy="160" r="4" fill="#2563eb"/>
    <circle cx="160" cy="352" r="4" fill="#2563eb"/>
    <circle cx="352" cy="352" r="4" fill="#2563eb"/>
  </g>

  <!-- Tech circuit pattern -->
  <g stroke="#2563eb" stroke-width="2" fill="none" opacity="0.6">
    <path d="M200 300 L220 300 L220 320 M240 300 L260 300 L260 320 M280 300 L300 300 L300 320"/>
    <path d="M200 330 L300 330"/>
    <path d="M220 320 L220 340 M260 320 L260 340"/>
    <path d="M200 340 L300 340"/>
  </g>

  <!-- React and Vue logos - positioned closer together -->
  <g transform="translate(200, 320)">
    <!-- React Logo -->
    <g transform="scale(0.12)">
      <circle cx="32" cy="32" r="8" fill="#61dafb" opacity="0.9"/>
      <path d="M32 4 C 45 4, 56 15, 56 28 L 56 36 C 56 49, 45 60, 32 60 C 19 60, 8 49, 8 36 L 8 28 C 8 15, 19 4, 32 4 Z" fill="none" stroke="#61dafb" stroke-width="3"/>
      <path d="M32 4 C 45 4, 56 15, 56 28 L 56 36 C 56 49, 45 60, 32 60" fill="none" stroke="#61dafb" stroke-width="3"/>
      <path d="M32 4 C 19 4, 8 15, 8 28 L 8 36 C 8 49, 19 60, 32 60" fill="none" stroke="#61dafb" stroke-width="3"/>
    </g>
  </g>

  <g transform="translate(312, 320)">
    <!-- Vue Logo -->
    <g transform="scale(0.12)">
      <polygon points="32,4 56,28 32,52 8,28" fill="#4fc08d" opacity="0.9"/>
      <polygon points="32,12 48,28 32,44 16,28" fill="#41b883"/>
      <polygon points="32,20 40,28 32,36 24,28" fill="#35495e"/>
    </g>
  </g>

  <!-- "GOD" text with advanced styling -->
  <text x="256" y="450" text-anchor="middle" fill="url(#accentGradient)" font-family="Arial, sans-serif" font-size="56" font-weight="bold" letter-spacing="4">GOD</text>
</svg>
