<svg xmlns="http://www.w3.org/2000/svg" width="32" height="32" viewBox="0 0 32 32" fill="none">
  <!-- Divine Triangle inspired by Vite -->
  <path d="M30.5 8.5L16.5 30.5C15.5 32.1 13.1 32.1 12.1 30.5L1.5 8.5C0.3 6.3 1.9 3.5 4.4 3.5H27.6C30.1 3.5 31.7 6.3 30.5 8.5Z" fill="url(#divineTriangle)"/>

  <!-- Divine Rays/Cross symbol instead of lightning bolt -->
  <g transform="translate(16,16)">
    <!-- Central divine circle -->
    <circle cx="0" cy="0" r="2" fill="url(#divineCenter)"/>

    <!-- Divine rays radiating outward -->
    <path d="M0,-8 L0,-3 M0,3 L0,8 M-8,0 L-3,0 M3,0 L8,0" stroke="url(#divineRays)" stroke-width="1.5" stroke-linecap="round"/>

    <!-- Divine cross arms -->
    <path d="M-4,-1 L4,1 M-4,1 L4,-1" stroke="url(#divineRays)" stroke-width="1" stroke-linecap="round"/>
  </g>

  <defs>
    <!-- Divine triangle gradient - purple to gold -->
    <linearGradient id="divineTriangle" x1="1" y1="4" x2="16" y2="28" gradientUnits="userSpaceOnUse">
      <stop stop-color="#8B5CF6"/>
      <stop offset="0.5" stop-color="#A855F7"/>
      <stop offset="1" stop-color="#F59E0B"/>
    </linearGradient>

    <!-- Divine center gradient - bright gold -->
    <radialGradient id="divineCenter" cx="0" cy="0" r="1">
      <stop stop-color="#FCD34D"/>
      <stop offset="1" stop-color="#F59E0B"/>
    </radialGradient>

    <!-- Divine rays gradient - white to gold -->
    <linearGradient id="divineRays" x1="0" y1="-8" x2="0" y2="8" gradientUnits="userSpaceOnUse">
      <stop stop-color="#FFFFFF"/>
      <stop offset="1" stop-color="#F59E0B"/>
    </linearGradient>
  </defs>
</svg>
